<svg xmlns="http://www.w3.org/2000/svg" width="117.792" height="117" viewBox="0 0 117.792 117"><defs><style>.a{fill:#445258;}.b{fill:#23396a;}.c{fill:#fff;}.d{opacity:0.1;}.e{fill:#fdba6d;}</style></defs><path class="a" d="M60.432,43.593a3.773,3.773,0,0,1-2.668-6.441A17.34,17.34,0,1,0,33.241,12.629,3.774,3.774,0,0,1,27.9,7.292a24.887,24.887,0,1,1,35.2,35.2A3.861,3.861,0,0,1,60.432,43.593Z" transform="translate(-20.623 0)"/><path class="b" d="M188.4,11.5h48.17a6.224,6.224,0,0,1,6.234,6.234V56.381a6.224,6.224,0,0,1-6.234,6.234H188.4a13.833,13.833,0,0,1-10.053-4.325L165.394,44.626a10.966,10.966,0,0,1,0-15.114l12.951-13.664A13.729,13.729,0,0,1,188.4,11.5Z" transform="translate(-125.011 -8.855)"/><path class="c" d="M402.608,85.292h12.307a2.209,2.209,0,0,0,2.208-2.208V55.708a2.209,2.209,0,0,0-2.208-2.208H402.608a2.209,2.209,0,0,0-2.208,2.208V83.083A2.209,2.209,0,0,0,402.608,85.292Z" transform="translate(-308.28 -41.193)"/><path class="a" d="M431.025,105.647a1.738,1.738,0,0,1-1.725-1.725v-11a1.725,1.725,0,0,1,3.451,0v11A1.723,1.723,0,0,1,431.025,105.647Z" transform="translate(-330.532 -70.22)"/><path class="d" d="M202.615,85.295a33.3,33.3,0,0,0-36.691-7.039l-.529.575a10.966,10.966,0,0,0,0,15.114l12.951,13.664a13.872,13.872,0,0,0,10.053,4.325h23.809A33.159,33.159,0,0,0,202.615,85.295Z" transform="translate(-125.011 -58.173)"/><path class="e" d="M158.912,160.519a11.984,11.984,0,0,0-3.5-8.212L123.784,120.7A33.281,33.281,0,1,0,104.6,139.884l4.555,4.555-1.748,5.5a3.21,3.21,0,0,0,4.026,4.026l4.187-1.334a.737.737,0,0,1,.92.92l-1.334,4.187a3.21,3.21,0,0,0,4.026,4.026l4.187-1.334a.737.737,0,0,1,.92.92L123,165.534a3.21,3.21,0,0,0,4.026,4.026l5.5-1.748,3.727,3.727a11.883,11.883,0,0,0,8.212,3.5l6.1.115a8.35,8.35,0,0,0,8.511-8.511Z" transform="translate(-45.743 -58.151)"/><path class="d" d="M377.1,413.44l3.727,3.727a11.883,11.883,0,0,0,8.212,3.5l6.1.115a8.35,8.35,0,0,0,8.512-8.512l-.115-6.1a11.984,11.984,0,0,0-3.5-8.212l-3.4-3.359a11.883,11.883,0,0,1,3.5,8.212l.115,6.1a8.35,8.35,0,0,1-8.512,8.512l-6.1-.115a11.984,11.984,0,0,1-8.212-3.5" transform="translate(-290.34 -303.826)"/><circle class="d" cx="24.936" cy="24.936" r="24.936" transform="translate(22.026 25.695)"/><path class="d" d="M339.966,357.691a1.706,1.706,0,0,1-1.219-.506l-22.521-22.521a1.724,1.724,0,1,1,2.438-2.438l22.521,22.521a1.736,1.736,0,0,1,0,2.438A1.807,1.807,0,0,1,339.966,357.691Z" transform="translate(-243.084 -255.415)"/><g transform="translate(0 6.165)"><path class="a" d="M24.829,70.393A24.89,24.89,0,0,1,7.231,27.9a3.774,3.774,0,1,1,5.337,5.337A17.34,17.34,0,1,0,37.09,57.763,3.774,3.774,0,1,1,42.427,63.1,24.65,24.65,0,0,1,24.829,70.393Z" transform="translate(0.05 -26.8)"/><path class="a" d="M171.647,275.272a1.706,1.706,0,0,1-1.219-.506l-1.7-1.7a1.724,1.724,0,1,1,2.438-2.438l1.7,1.7a1.736,1.736,0,0,1,0,2.438A1.633,1.633,0,0,1,171.647,275.272Z" transform="translate(-129.515 -214.15)"/><path class="a" d="M260.747,186.272a1.706,1.706,0,0,1-1.219-.506l-1.7-1.7a1.724,1.724,0,1,1,2.438-2.438l1.7,1.7a1.736,1.736,0,0,1,0,2.438A1.807,1.807,0,0,1,260.747,186.272Z" transform="translate(-198.118 -145.624)"/><path class="a" d="M210.855,230.364a2.934,2.934,0,0,1-.46-.023,1.729,1.729,0,0,1,.23-3.451,3.33,3.33,0,0,0,3.566-3.566,1.729,1.729,0,1,1,3.451-.23,6.725,6.725,0,0,1-1.978,5.268A6.792,6.792,0,0,1,210.855,230.364Z" transform="translate(-160.741 -176.696)"/></g></svg>