<svg xmlns="http://www.w3.org/2000/svg" width="217.411" height="216.778" viewBox="0 0 217.411 216.778"><defs><style>.a{fill:#efedee;}.b{fill:#d4d2d3;}.c{fill:#49639c;}.d{fill:#23396a;}.e{fill:#3a484a;}.f{fill:#ffc4b0;}.g{fill:#ffcd38;}.h{fill:#e6b09c;}</style></defs><path class="a" d="M330.627,332.1,297.1,339.23v27.925l33.527,10.992,33.527-10.992V339.23Z" transform="translate(-170.903 -191.16)"/><path class="b" d="M312.59,348.9H297.1v27.925l15.49,5.093Z" transform="translate(-170.903 -200.831)"/><path class="c" d="M0,0H67.054V40.784H0Z" transform="translate(126.197 175.994)"/><rect class="d" width="15.49" height="40.784" transform="translate(126.197 175.994)"/><circle class="e" cx="5.135" cy="5.135" r="5.135" transform="translate(171.394 156.897)"/><path class="a" d="M90.427,332.1l33.527,7.13v27.925L90.427,378.146,56.9,367.155V339.23Z" transform="translate(-32.642 -191.16)"/><circle class="e" cx="5.135" cy="5.135" r="5.135" transform="translate(35.844 156.897)"/><path class="c" d="M0,0H67.054V40.784H0Z" transform="translate(24.258 175.994)"/><g transform="translate(0 66.035)"><path class="f" d="M386.713,189.169a8.4,8.4,0,0,0-11.586-2.461l-11.2,7.257V164a8.4,8.4,0,0,0-8.4-8.4h0a8.4,8.4,0,0,0-8.4,8.4,8.4,8.4,0,0,0-8.4-8.4h0a8.4,8.4,0,0,0-8.4,8.4,8.4,8.4,0,0,0-8.4-8.4h0a8.4,8.4,0,0,0-8.4,8.4,8.4,8.4,0,0,0-8.4-8.4h0a8.4,8.4,0,0,0-8.4,8.4v73.632h67.053V213.954h0l20.5-13.2A8.322,8.322,0,0,0,386.713,189.169Z" transform="translate(-170.673 -155.6)"/><path class="f" d="M82.648,155.7h0a8.4,8.4,0,0,0-8.4,8.4,8.4,8.4,0,0,0-8.4-8.4h0a8.4,8.4,0,0,0-8.4,8.4,8.4,8.4,0,0,0-8.4-8.4h0a8.4,8.4,0,0,0-8.4,8.4,8.4,8.4,0,0,0-8.4-8.4h0a8.4,8.4,0,0,0-8.4,8.4v29.919l-11.161-7.257a8.375,8.375,0,0,0-9.124,14.047l20.328,13.2h0v23.681H90.924V164.06A8.173,8.173,0,0,0,82.648,155.7Z" transform="translate(0.261 -155.658)"/></g><g transform="translate(26.806 0)"><path class="g" d="M244.568,23.638a3.269,3.269,0,0,1-3.268-3.268V3.268a3.268,3.268,0,0,1,6.536,0v17.1A3.269,3.269,0,0,1,244.568,23.638Z" transform="translate(-165.591)"/><path class="g" d="M326.561,37.509a3.562,3.562,0,0,1-1.57-.382,3.313,3.313,0,0,1-1.316-4.456l8.191-14.981a3.313,3.313,0,0,1,4.456-1.316,3.275,3.275,0,0,1,1.316,4.456l-8.191,14.981A3.218,3.218,0,0,1,326.561,37.509Z" transform="translate(-212.783 -9.203)"/><path class="g" d="M390.645,77.441a3.269,3.269,0,0,1-1.952-5.9L402.4,61.314a3.276,3.276,0,0,1,3.9,5.262L392.6,76.8A3.256,3.256,0,0,1,390.645,77.441Z" transform="translate(-249.665 -34.917)"/><path class="g" d="M151.5,37.5a3.352,3.352,0,0,1-2.886-1.7l-8.148-14.981a3.285,3.285,0,0,1,5.772-3.14l8.191,14.981a3.3,3.3,0,0,1-1.316,4.456A3.739,3.739,0,0,1,151.5,37.5Z" transform="translate(-107.32 -9.191)"/><path class="g" d="M79.878,77.466a3.35,3.35,0,0,1-1.952-.637L64.218,66.6a3.276,3.276,0,0,1,3.9-5.262L81.83,71.567a3.306,3.306,0,0,1,.679,4.583A3.161,3.161,0,0,1,79.878,77.466Z" transform="translate(-62.904 -34.942)"/></g><path class="b" d="M193.89,348.9H178.4v27.925l15.49,5.093Z" transform="translate(-102.578 -200.831)"/><rect class="d" width="15.49" height="40.784" transform="translate(75.822 175.994)"/><g transform="translate(75.779 66.077)"><path class="h" d="M185.43,155.7h0a8.379,8.379,0,0,0-7.13,3.947v78.045h15.49V164.06A8.3,8.3,0,0,0,185.43,155.7Z" transform="translate(-178.3 -155.7)"/><path class="h" d="M305.56,155.7h0a8.379,8.379,0,0,1,7.13,3.947v78.045H297.2V164.06A8.323,8.323,0,0,1,305.56,155.7Z" transform="translate(-246.74 -155.7)"/></g></svg>